<svg width="70" height="70" viewBox="0 0 70 70" fill="none" xmlns="http://www.w3.org/2000/svg">
<path fill-rule="evenodd" clip-rule="evenodd" d="M23.4634 13.0233C23.4653 13.7422 23.2266 14.3628 22.7473 14.8847L29.9956 21.5434H40.0523L47.3009 14.8847C46.8215 14.3628 46.5828 13.7422 46.5847 13.0233C46.5845 12.2688 46.852 11.6243 47.3882 11.0901C47.9228 10.5516 48.5672 10.2809 49.3219 10.2787C50.0789 10.2809 50.726 10.5516 51.2629 11.0901C51.7991 11.6243 52.0666 12.2689 52.0666 13.0233C52.0666 13.7803 51.7991 14.4274 51.2629 14.9643C50.7258 15.5001 50.0789 15.7679 49.3219 15.7679C48.9112 15.7673 48.5344 15.6877 48.192 15.5292L45.4548 21.5434H48.9876C50.9339 21.5434 52.5967 22.233 53.9762 23.6118C55.3554 24.9884 56.0449 26.6486 56.0449 28.592V36.0941L59.0443 32.347H60.8027V42.4585H59.0443L56.0449 38.7114V43.5402H14.0111V38.7032L11.0037 42.4585H9.24533V32.347H11.0037L14.0111 36.1019V28.592C14.0111 26.6486 14.7005 24.9885 16.0798 23.6118C17.4593 22.233 19.1222 21.5434 21.0685 21.5434H24.593L21.8561 15.5292C21.5134 15.6877 21.1367 15.7673 20.7262 15.7679C19.969 15.7679 19.3219 15.5001 18.7847 14.9643C18.2488 14.4273 17.9811 13.7803 17.9813 13.0233C17.9811 12.2688 18.2488 11.6243 18.7847 11.0901C19.3221 10.5516 19.969 10.2809 20.7262 10.2787C21.4807 10.2809 22.1249 10.5516 22.6596 11.0901C23.1957 11.6243 23.4635 12.2688 23.4634 13.0233ZM28.7304 31.7742C28.0541 31.0958 27.2347 30.7564 26.272 30.7559C25.3065 30.7564 24.4846 31.0958 23.8055 31.7742C23.1271 32.4528 22.7876 33.2752 22.7871 34.2403C22.7876 35.2028 23.1271 36.0221 23.8055 36.6984C24.4846 37.3768 25.3065 37.7161 26.272 37.7166C27.2347 37.7161 28.0541 37.3768 28.7304 36.6984C29.4088 36.0221 29.7484 35.2028 29.7488 34.2403C29.7484 33.2752 29.4088 32.4528 28.7304 31.7742ZM46.2342 36.6985C46.9127 36.0223 47.2521 35.2029 47.2529 34.2404C47.2521 33.2752 46.9127 32.453 46.2342 31.7743C45.5581 31.0959 44.7386 30.7566 43.776 30.756C42.8103 30.7566 41.9885 31.0959 41.3094 31.7743C40.6312 32.453 40.2919 33.2753 40.291 34.2404C40.2919 35.2029 40.6312 36.0223 41.3094 36.6985C41.9885 37.3769 42.8105 37.7162 43.776 37.7168C44.7385 37.7162 45.5581 37.3769 46.2342 36.6985Z" fill="#1F7ADC"/>
<path fill-rule="evenodd" clip-rule="evenodd" d="M14.011 48.4567V45.7997H25.9854C26.3867 46.4015 26.8588 46.9744 27.4015 47.5177C29.5108 49.6253 32.0542 50.6781 35.0318 50.676C38.011 50.6782 40.5516 49.6253 42.6539 47.5177C43.1994 46.9742 43.6742 46.4015 44.0785 45.7997H56.0445V48.4567C56.0445 50.4055 55.355 52.0708 53.9758 53.4528C52.6394 54.7887 51.0377 55.478 49.1704 55.5212H21.0685C19.1221 55.5212 17.4592 54.8316 16.0797 53.4528C14.7005 52.0707 14.011 50.4055 14.011 48.4567Z" fill="#1F7ADC"/>
<path fill-rule="evenodd" clip-rule="evenodd" d="M24.5216 57.7246L24.5295 57.7328C31.494 57.7328 38.4586 57.7328 45.423 57.7328C45.4203 58.8409 45.4177 59.9497 45.4147 61.0578H24.5216V57.7246Z" fill="#1F7ADC"/>
</svg>
