<svg width="60" height="46" viewBox="0 0 60 46" fill="none" xmlns="http://www.w3.org/2000/svg">
<g clip-path="url(#clip0_21_20)">
<path d="M5.27429 31.2225C5.52571 31.2829 5.86714 31.5948 5.96571 31.8794L6.46571 33.0927C6.57857 33.3256 6.55714 33.787 6.42286 34.0084L4.42714 37.2916C4 37.996 4.08857 38.9936 4.66286 39.6405L6.35286 41.3396C6.94143 41.8657 7.98 41.9606 8.65714 41.5481L11.92 39.5399C12.1243 39.4134 12.5629 39.3688 12.87 39.514L14.0743 40.0142C14.3171 40.0991 14.6271 40.4412 14.6871 40.6942L15.5829 44.4374C15.7729 45.2309 16.5257 45.8836 17.3343 45.9583C17.3343 45.9583 17.83 46.0043 18.5729 46.0043C19.3157 46.0043 19.8114 45.9583 19.8129 45.9583C20.62 45.885 21.3729 45.2309 21.5629 44.4374L22.46 40.6942C22.52 40.4426 22.8286 40.0991 23.1114 39.9999L24.3171 39.4967C24.53 39.3918 25.0229 39.4134 25.2271 39.5399L28.49 41.5481C28.7771 41.7249 29.12 41.8183 29.4843 41.8183C29.9771 41.8183 30.4543 41.6444 30.8243 41.3123L32.5129 39.6117C33.0586 38.9951 33.1471 37.9974 32.72 37.2931L30.7243 34.0098C30.59 33.7884 30.5686 33.327 30.6986 33.0539L31.1957 31.8421C31.28 31.5977 31.62 31.2857 31.8714 31.2254L35.5914 30.3241C36.38 30.1329 37.0286 29.3753 37.1029 28.5617C37.1029 28.5617 37.1486 28.0629 37.1486 27.3154C37.1486 26.5679 37.1029 26.0691 37.1029 26.0676C37.03 25.2554 36.38 24.4979 35.5914 24.3053L31.8729 23.4054C31.6214 23.345 31.28 23.0331 31.1814 22.7484L30.6814 21.5352C30.5686 21.3023 30.59 20.8409 30.7243 20.6195L32.72 17.3363C33.1471 16.6319 33.0586 15.6342 32.4843 14.9874L30.7943 13.2883C30.2043 12.7607 29.1643 12.6658 28.49 13.0798L25.2271 15.088C25.0229 15.2131 24.5829 15.2605 24.2771 15.1139L23.0729 14.6136C22.83 14.5288 22.5214 14.1867 22.4614 13.9337L21.5643 10.1904C21.3743 9.39694 20.6214 8.74431 19.8129 8.66956C19.81 8.671 19.3143 8.625 18.5714 8.625C17.8286 8.625 17.3329 8.671 17.3314 8.671C16.5243 8.74431 15.7714 9.39838 15.58 10.1919L14.6857 13.9323C14.6257 14.1853 14.3157 14.5288 14.0329 14.628L12.8271 15.1311C12.6129 15.2361 12.1214 15.2131 11.9171 15.088L8.65571 13.0798C7.98 12.6658 6.96286 12.7377 6.32143 13.3156L4.63286 15.0161C4.08714 15.6328 3.99857 16.6304 4.42571 17.3348L6.42143 20.6181C6.55571 20.8394 6.57714 21.3009 6.44714 21.574L5.95 22.7858C5.86571 23.0302 5.52571 23.3421 5.27429 23.4025L1.55429 24.3038C0.765714 24.495 0.117143 25.2526 0.0428571 26.0662C0.0457143 26.0662 0 26.565 0 27.3125C0 28.06 0.0457143 28.5588 0.0457143 28.5602C0.118571 29.3724 0.768571 30.13 1.55714 30.3226L5.27429 31.2225ZM1.42857 27.3125C1.42857 26.6541 1.46714 26.2099 1.46857 26.1956C1.48571 26.0015 1.70429 25.7471 1.89143 25.7011L5.61143 24.7998C6.33286 24.6244 7.06 23.9602 7.28571 23.2947L7.74857 22.1634C8.07429 21.4921 8.02857 20.5059 7.64143 19.8677L5.64571 16.5859C5.55 16.4263 5.57714 16.1101 5.67143 16.0022L7.30143 14.3606C7.43143 14.2442 7.76286 14.2154 7.91143 14.306L11.1743 16.3142C11.7929 16.6951 12.8529 16.721 13.4143 16.4407L14.54 15.9721C15.2414 15.7291 15.9014 14.9974 16.0757 14.2701L16.97 10.5282C17.0157 10.3385 17.2686 10.1186 17.4614 10.1013C17.4757 10.1013 17.9171 10.0625 18.5714 10.0625C19.2257 10.0625 19.6671 10.1013 19.6814 10.1027C19.8743 10.12 20.1271 10.3399 20.1729 10.5282L21.0686 14.2701C21.2429 14.996 21.9014 15.7291 22.5643 15.9563L23.6886 16.422C24.3414 16.744 25.3529 16.6937 25.97 16.3142L29.2314 14.306C29.38 14.2154 29.7314 14.2629 29.8114 14.3319L31.4429 15.9721C31.5657 16.1115 31.5929 16.4263 31.4971 16.5859L29.5014 19.8691C29.1143 20.5059 29.0686 21.4935 29.3757 22.1231L29.8414 23.2559C30.0829 23.9617 30.81 24.6258 31.5329 24.8012L35.2514 25.7011C35.44 25.7471 35.6586 26.0015 35.6757 26.1956C35.6757 26.2099 35.7143 26.6541 35.7143 27.3125C35.7143 27.9709 35.6757 28.4151 35.6743 28.4294C35.6571 28.6235 35.4386 28.8779 35.2514 28.9239L31.5314 29.8252C30.81 30.0006 30.0829 30.6648 29.8571 31.3303L29.3943 32.4616C29.0686 33.1329 29.1143 34.1191 29.5014 34.7573L31.4971 38.0391C31.5929 38.1987 31.5657 38.5149 31.4714 38.6227L29.8414 40.2644C29.7643 40.3334 29.6243 40.3779 29.4829 40.3779C29.3843 40.3779 29.2929 40.3564 29.2329 40.319L25.97 38.3108C25.3529 37.9313 24.2929 37.904 23.73 38.1843L22.6043 38.6529C21.9029 38.8959 21.2429 39.629 21.07 40.3549L20.1743 44.0968C20.1286 44.2865 19.8757 44.5064 19.6829 44.5237C19.6671 44.5237 19.2257 44.5625 18.5714 44.5625C17.9171 44.5625 17.4757 44.5237 17.4614 44.5223C17.2686 44.505 17.0157 44.2851 16.97 44.0968L16.0743 40.3535C15.9 39.6276 15.24 38.8959 14.5786 38.6687L13.4543 38.203C13.1629 38.0592 12.81 37.9845 12.4329 37.9845C11.9629 37.9845 11.5157 38.1009 11.1729 38.3123L7.91143 40.3204C7.76286 40.411 7.41 40.3621 7.33143 40.2946L5.7 38.6529C5.57714 38.5135 5.55 38.1987 5.64571 38.0391L7.64143 34.7559C8.02857 34.1191 8.07429 33.1315 7.76714 32.5019L7.30143 31.3691C7.06 30.6633 6.33286 29.9992 5.61 29.8238L1.89143 28.9239C1.70286 28.8779 1.48429 28.6235 1.46714 28.4294C1.46714 28.4151 1.42857 27.9709 1.42857 27.3125Z" fill="#1F7ADC"/>
<path d="M18.5714 35.2187C22.9043 35.2187 26.4286 31.6724 26.4286 27.3125C26.4286 22.9526 22.9043 19.4062 18.5714 19.4062C14.2386 19.4062 10.7143 22.9526 10.7143 27.3125C10.7143 31.6724 14.2386 35.2187 18.5714 35.2187ZM18.5714 20.8437C22.1157 20.8437 25 23.7461 25 27.3125C25 30.8789 22.1157 33.7812 18.5714 33.7812C15.0272 33.7812 12.1429 30.8789 12.1429 27.3125C12.1429 23.7461 15.0272 20.8437 18.5714 20.8437Z" fill="#1F7ADC"/>
<path d="M39.2529 7.63896C39.1957 7.72665 38.9886 7.83734 38.8829 7.83734L36.2243 7.81146C35.5786 7.81146 34.9314 8.2729 34.72 8.88384C34.72 8.88384 34.6029 9.21877 34.4743 9.73196C34.3457 10.2451 34.2914 10.5959 34.2914 10.5959C34.1914 11.2442 34.55 11.9615 35.1257 12.2648L37.47 13.5011C37.56 13.5485 37.6929 13.7483 37.7071 13.8935L37.84 14.8063C37.8614 14.907 37.7929 15.137 37.72 15.2088L35.8314 17.0718C35.3586 17.5376 35.2343 18.334 35.56 18.9593L36.4157 20.3968C36.7771 20.9315 37.56 21.2046 38.1743 21.012L40.78 20.2099C40.9214 20.2099 41.0629 20.2645 41.1429 20.3292L41.8786 20.8755C41.9643 20.933 42.0771 21.1443 42.0757 21.2478L42.05 23.91C42.0443 24.5655 42.5014 25.2225 43.1157 25.4381C43.1157 25.4381 43.4486 25.556 43.9586 25.6853C44.4686 25.8147 44.8171 25.8693 44.8171 25.8693C44.8543 25.8751 45.0029 25.8866 45.04 25.8866C45.6229 25.8866 46.2143 25.5344 46.4757 25.0298L47.7043 22.6709C47.7514 22.5803 47.95 22.4466 48.0943 22.4323L49.0414 22.2943C49.1843 22.2943 49.3529 22.369 49.4 22.4179L51.2514 24.3183C51.7014 24.7811 52.46 24.9465 53.1271 24.5914L54.5543 23.7303C55.1 23.3566 55.3643 22.5947 55.1671 21.9608L54.3786 19.4207C54.3486 19.323 54.3957 19.0872 54.49 18.9736L55.0329 18.2333C55.09 18.1456 55.2971 18.035 55.4029 18.035L58.0614 18.0608C58.7071 18.0608 59.3543 17.5994 59.5657 16.9885C59.5657 16.9885 59.6829 16.6535 59.8114 16.1403C59.94 15.6271 59.9943 15.2764 59.9943 15.2764C60.0943 14.6281 59.7357 13.9108 59.16 13.6075L56.8157 12.3712C56.7257 12.3238 56.5929 12.124 56.5786 11.9788L56.4471 11.0688C56.4257 10.9682 56.4943 10.7382 56.5671 10.6663L58.4557 8.80334C58.9286 8.33759 59.0529 7.54121 58.7271 6.9159L57.8714 5.4784C57.51 4.94509 56.7286 4.66909 56.1129 4.86171L53.5057 5.66384C53.3643 5.66384 53.2229 5.60921 53.1429 5.54452L52.4072 4.99827C52.3214 4.94077 52.2086 4.72946 52.21 4.62596L52.2357 1.96371C52.2414 1.30821 51.7843 0.651274 51.17 0.435649C51.17 0.435649 50.8371 0.317774 50.3271 0.188399C49.8171 0.0590239 49.4686 0.00439893 49.4686 0.00439893C49.4314 8.64258e-05 49.2829 -0.0114136 49.2457 -0.0114136C48.6629 -0.0114136 48.0714 0.340774 47.81 0.845336L46.5814 3.20427C46.5343 3.29484 46.3357 3.42852 46.1914 3.4429L45.2443 3.57946C45.1014 3.57946 44.9329 3.50471 44.8857 3.45584L43.0343 1.55546C42.5857 1.09402 41.8286 0.927274 41.1586 1.28234L39.73 2.14196C39.1843 2.51571 38.92 3.27759 39.1171 3.91152L39.9057 6.45159C39.9357 6.54934 39.8886 6.78509 39.7943 6.89865L39.2529 7.63896ZM40.4243 8.46121L40.9143 7.79134C41.2971 7.33565 41.4457 6.59246 41.2686 6.02465L40.4814 3.48602C40.4743 3.44577 40.5057 3.35521 40.4986 3.35377L41.8529 2.53727L42.0143 2.56171L43.8671 4.46209C44.1957 4.79846 44.7371 5.01696 45.2457 5.01696C45.3629 5.01696 45.4757 5.00546 45.5371 4.98965L46.3586 4.86746C46.9471 4.81571 47.5743 4.39596 47.8486 3.86984L49.0757 1.51234C49.0986 1.4764 49.1886 1.42465 49.2471 1.42465C49.2629 1.42609 49.5543 1.47496 49.98 1.58134C50.4043 1.68915 50.6843 1.78546 50.6971 1.79121C50.7414 1.8099 50.8057 1.90334 50.8086 1.94934L50.7829 4.61159C50.7771 5.20671 51.1329 5.87515 51.5929 6.17702L52.2572 6.67009C52.6986 7.04527 53.4557 7.2034 54.0129 7.02659L56.5471 6.23309C56.6071 6.23309 56.6743 6.27046 56.6657 6.25177L57.4771 7.61452C57.4929 7.6519 57.4771 7.74677 57.4529 7.77696L55.5643 9.6414C55.1429 10.0597 54.9243 10.7842 55.04 11.3218L55.16 12.1484C55.2114 12.7407 55.6286 13.3717 56.1529 13.6477L58.4957 14.8825C58.5357 14.9084 58.5857 15.009 58.5829 15.055C58.5814 15.0708 58.5329 15.3641 58.4271 15.7925C58.32 16.2194 58.2243 16.5012 58.2186 16.5141C58.2 16.5586 58.1071 16.6233 58.0614 16.6262L55.4014 16.6003C54.8143 16.6003 54.1571 16.9583 53.86 17.4154L53.3714 18.0838C52.9886 18.5395 52.84 19.2827 53.0171 19.8505L53.8043 22.3891C53.8114 22.428 53.78 22.52 53.7871 22.5214L52.4329 23.3379L52.2714 23.3135L50.4186 21.4131C50.09 21.0767 49.5486 20.8582 49.04 20.8582C48.9229 20.8582 48.81 20.8697 48.7486 20.8855L47.9271 21.0077C47.3386 21.0595 46.7114 21.4792 46.4371 22.0053L45.21 24.3628C45.1871 24.3988 45.0971 24.4505 45.0386 24.4505C45.0229 24.4491 44.7314 24.4002 44.3057 24.2938C43.8814 24.186 43.6014 24.0897 43.5886 24.084C43.5443 24.0653 43.48 23.9718 43.4771 23.9258L43.5029 21.2636C43.5086 20.6685 43.1529 20 42.6929 19.6981L42.0286 19.2051C41.7114 18.9348 41.2443 18.7738 40.7786 18.7738C40.5986 18.7738 40.4271 18.7997 40.2714 18.8486L37.7371 19.6421C37.6757 19.6421 37.6086 19.609 37.6186 19.6234L36.8071 18.2606C36.7914 18.2233 36.8071 18.1284 36.8314 18.0982L38.72 16.2338C39.1414 15.8155 39.36 15.091 39.2443 14.5533L39.1243 13.7282C39.0729 13.136 38.6557 12.5049 38.1314 12.2289L35.7886 10.9941C35.7486 10.9682 35.6986 10.8676 35.7014 10.8216C35.7029 10.8058 35.7514 10.5125 35.8571 10.0841C35.9643 9.65721 36.06 9.37546 36.0657 9.36252C36.0843 9.31796 36.1771 9.25327 36.2229 9.2504L38.8829 9.27627C39.47 9.27627 40.1271 8.91834 40.4243 8.46121Z" fill="#1F7ADC"/>
<path d="M47.1429 17.25C49.5057 17.25 51.4286 15.3151 51.4286 12.9375C51.4286 10.5599 49.5057 8.625 47.1429 8.625C44.78 8.625 42.8571 10.5599 42.8571 12.9375C42.8571 15.3151 44.78 17.25 47.1429 17.25ZM47.1429 10.0625C48.7186 10.0625 50 11.3519 50 12.9375C50 14.5231 48.7186 15.8125 47.1429 15.8125C45.5671 15.8125 44.2857 14.5231 44.2857 12.9375C44.2857 11.3519 45.5671 10.0625 47.1429 10.0625Z" fill="#1F7ADC"/>
</g>
<defs>
<clipPath id="clip0_21_20">
<rect width="60" height="46" fill="white"/>
</clipPath>
</defs>
</svg>
