<svg width="140" height="21" viewBox="0 0 140 21" fill="none" xmlns="http://www.w3.org/2000/svg">
<path d="M4.71289 20H0.421875V6.26367H4.71289V20ZM0.167969 2.72168C0.167969 2.1123 0.388021 1.61296 0.828125 1.22363C1.26823 0.83431 1.83952 0.639648 2.54199 0.639648C3.24447 0.639648 3.81576 0.83431 4.25586 1.22363C4.69596 1.61296 4.91602 2.1123 4.91602 2.72168C4.91602 3.33105 4.69596 3.8304 4.25586 4.21973C3.81576 4.60905 3.24447 4.80371 2.54199 4.80371C1.83952 4.80371 1.26823 4.60905 0.828125 4.21973C0.388021 3.8304 0.167969 3.33105 0.167969 2.72168ZM14.7295 14.9727L18.4111 1.51562H23.3877L17.167 20H12.292L6.12207 1.51562H11.0605L14.7295 14.9727ZM31.7031 20C31.5508 19.7207 31.4154 19.3102 31.2969 18.7686C30.5098 19.7588 29.4095 20.2539 27.9961 20.2539C26.7012 20.2539 25.6009 19.8646 24.6953 19.0859C23.7897 18.2988 23.3369 17.3128 23.3369 16.1279C23.3369 14.6383 23.887 13.5127 24.9873 12.751C26.0876 11.9893 27.6872 11.6084 29.7861 11.6084H31.1064V10.8848C31.1064 9.6237 30.5605 8.99316 29.4688 8.99316C28.4531 8.99316 27.9453 9.49251 27.9453 10.4912H23.667C23.667 9.16243 24.2298 8.08333 25.3555 7.25391C26.4896 6.42448 27.9326 6.00977 29.6846 6.00977C31.4365 6.00977 32.8203 6.43717 33.8359 7.29199C34.8516 8.14681 35.3721 9.31901 35.3975 10.8086V16.8896C35.4144 18.1507 35.609 19.1156 35.9814 19.7842V20H31.7031ZM29.0244 17.207C29.5576 17.207 29.9977 17.0928 30.3447 16.8643C30.7002 16.6357 30.9541 16.3776 31.1064 16.0898V13.8936H29.8623C28.3727 13.8936 27.6279 14.5622 27.6279 15.8994C27.6279 16.2887 27.7591 16.6061 28.0215 16.8516C28.2839 17.0885 28.6182 17.207 29.0244 17.207ZM41.707 6.26367L41.8467 7.87598C42.7946 6.63184 44.1022 6.00977 45.7695 6.00977C47.1999 6.00977 48.2663 6.43717 48.9688 7.29199C49.6797 8.14681 50.0479 9.43327 50.0732 11.1514V20H45.7822V11.3291C45.7822 10.6351 45.6426 10.1273 45.3633 9.80566C45.084 9.47559 44.5762 9.31055 43.8398 9.31055C43.002 9.31055 42.3799 9.64062 41.9736 10.3008V20H37.6953V6.26367H41.707Z" fill="#1F7ADC"/>
<path d="M62.1846 15.0869C62.1846 14.4352 61.9518 13.9274 61.4863 13.5635C61.0293 13.1995 60.221 12.8229 59.0615 12.4336C57.902 12.0443 56.9541 11.6676 56.2178 11.3037C53.8226 10.1273 52.625 8.51074 52.625 6.4541C52.625 5.43001 52.9212 4.52865 53.5137 3.75C54.1146 2.96289 54.9609 2.35352 56.0527 1.92188C57.1445 1.48177 58.3717 1.26172 59.7344 1.26172C61.0632 1.26172 62.2523 1.4987 63.3018 1.97266C64.3597 2.44661 65.1807 3.1237 65.7646 4.00391C66.3486 4.87565 66.6406 5.87435 66.6406 7H62.1973C62.1973 6.24674 61.9645 5.66276 61.499 5.24805C61.042 4.83333 60.4199 4.62598 59.6328 4.62598C58.8372 4.62598 58.2067 4.80371 57.7412 5.15918C57.2842 5.50618 57.0557 5.95052 57.0557 6.49219C57.0557 6.96615 57.3096 7.39779 57.8174 7.78711C58.3252 8.16797 59.2181 8.56576 60.4961 8.98047C61.7741 9.38672 62.8236 9.82682 63.6445 10.3008C65.6419 11.4518 66.6406 13.0387 66.6406 15.0615C66.6406 16.6781 66.0312 17.9476 64.8125 18.8701C63.5938 19.7926 61.9222 20.2539 59.7979 20.2539C58.2998 20.2539 56.9414 19.9873 55.7227 19.4541C54.5124 18.9124 53.5983 18.1761 52.9805 17.2451C52.3711 16.3057 52.0664 15.2266 52.0664 14.0078H56.5352C56.5352 14.998 56.7891 15.7301 57.2969 16.2041C57.8132 16.6696 58.6468 16.9023 59.7979 16.9023C60.5342 16.9023 61.1139 16.7458 61.5371 16.4326C61.9688 16.111 62.1846 15.6624 62.1846 15.0869ZM75.375 20.2539C73.2676 20.2539 71.5622 19.6276 70.2588 18.375C68.9554 17.1139 68.3037 15.4762 68.3037 13.4619V13.1064C68.3037 11.7015 68.5618 10.4616 69.0781 9.38672C69.6029 8.31185 70.3646 7.48242 71.3633 6.89844C72.362 6.30599 73.5469 6.00977 74.918 6.00977C76.8477 6.00977 78.3711 6.61068 79.4883 7.8125C80.6055 9.00586 81.1641 10.6732 81.1641 12.8145V14.4775H72.6582C72.8105 15.2477 73.1449 15.8529 73.6611 16.293C74.1774 16.7331 74.846 16.9531 75.667 16.9531C77.0212 16.9531 78.0791 16.4792 78.8408 15.5312L80.7959 17.8418C80.2627 18.5781 79.5052 19.1663 78.5234 19.6064C77.5501 20.0381 76.5007 20.2539 75.375 20.2539ZM74.8926 9.31055C73.64 9.31055 72.8952 10.14 72.6582 11.7988H76.9746V11.4688C76.9915 10.7832 76.818 10.2542 76.4541 9.88184C76.0902 9.50098 75.5697 9.31055 74.8926 9.31055ZM91.2061 10.1357L89.7969 10.0342C88.4512 10.0342 87.5879 10.4574 87.207 11.3037V20H82.9287V6.26367H86.9404L87.0801 8.02832C87.7995 6.68262 88.8024 6.00977 90.0889 6.00977C90.5459 6.00977 90.9437 6.06055 91.2822 6.16211L91.2061 10.1357ZM98.4551 14.9092L100.626 6.26367H105.133L100.651 20H96.2842L91.8027 6.26367H96.3223L98.4551 14.9092ZM110.922 20H106.631V6.26367H110.922V20ZM106.377 2.72168C106.377 2.1123 106.597 1.61296 107.037 1.22363C107.477 0.83431 108.049 0.639648 108.751 0.639648C109.453 0.639648 110.025 0.83431 110.465 1.22363C110.905 1.61296 111.125 2.1123 111.125 2.72168C111.125 3.33105 110.905 3.8304 110.465 4.21973C110.025 4.60905 109.453 4.80371 108.751 4.80371C108.049 4.80371 107.477 4.60905 107.037 4.21973C106.597 3.8304 106.377 3.33105 106.377 2.72168ZM119.377 16.9531C119.978 16.9531 120.443 16.7923 120.773 16.4707C121.104 16.1406 121.264 15.6836 121.256 15.0996H125.268C125.268 16.6061 124.726 17.8418 123.643 18.8066C122.568 19.7715 121.18 20.2539 119.479 20.2539C117.481 20.2539 115.907 19.6276 114.756 18.375C113.605 17.1224 113.029 15.3874 113.029 13.1699V12.9922C113.029 11.6042 113.283 10.3812 113.791 9.32324C114.307 8.25684 115.048 7.4401 116.013 6.87305C116.978 6.29753 118.12 6.00977 119.44 6.00977C121.226 6.00977 122.644 6.50488 123.693 7.49512C124.743 8.48535 125.268 9.82682 125.268 11.5195H121.256C121.256 10.8086 121.082 10.2627 120.735 9.88184C120.388 9.50098 119.923 9.31055 119.339 9.31055C118.23 9.31055 117.583 10.0173 117.396 11.4307C117.337 11.8792 117.308 12.4971 117.308 13.2842C117.308 14.6637 117.473 15.6201 117.803 16.1533C118.133 16.6865 118.658 16.9531 119.377 16.9531ZM133.723 20.2539C131.615 20.2539 129.91 19.6276 128.606 18.375C127.303 17.1139 126.651 15.4762 126.651 13.4619V13.1064C126.651 11.7015 126.91 10.4616 127.426 9.38672C127.951 8.31185 128.712 7.48242 129.711 6.89844C130.71 6.30599 131.895 6.00977 133.266 6.00977C135.195 6.00977 136.719 6.61068 137.836 7.8125C138.953 9.00586 139.512 10.6732 139.512 12.8145V14.4775H131.006C131.158 15.2477 131.493 15.8529 132.009 16.293C132.525 16.7331 133.194 16.9531 134.015 16.9531C135.369 16.9531 136.427 16.4792 137.188 15.5312L139.144 17.8418C138.61 18.5781 137.853 19.1663 136.871 19.6064C135.898 20.0381 134.848 20.2539 133.723 20.2539ZM133.24 9.31055C131.988 9.31055 131.243 10.14 131.006 11.7988H135.322V11.4688C135.339 10.7832 135.166 10.2542 134.802 9.88184C134.438 9.50098 133.917 9.31055 133.24 9.31055Z" fill="white"/>
</svg>
