<svg width="47" height="47" viewBox="0 0 47 47" fill="none" xmlns="http://www.w3.org/2000/svg">
<path d="M46.0654 18.0257C45.4421 17.4025 44.685 17.0911 43.7952 17.0911H29.9087V3.20423C29.9087 2.31438 29.597 1.55757 28.9741 0.934402C28.351 0.311701 27.5948 0 26.7036 0H20.2952C19.4052 0 18.6485 0.31135 18.0254 0.934519C17.4022 1.55769 17.0907 2.31449 17.0907 3.20435V17.0912H3.20435C2.31449 17.0912 1.55769 17.4027 0.934519 18.0258C0.31135 18.649 0 19.4051 0 20.2955V26.7048C0 27.5955 0.311234 28.3517 0.934402 28.9743C1.55757 29.5977 2.31438 29.9089 3.20423 29.9089H17.0906V43.796C17.0906 44.6859 17.4021 45.4432 18.0252 46.0662C18.6484 46.6888 19.4051 47 20.2951 47H26.704C27.5946 47 28.3509 46.6888 28.9742 46.0662C29.5976 45.4429 29.9088 44.6859 29.9088 43.796V29.9089H43.7951C44.6857 29.9089 45.4423 29.5977 46.0652 28.9743C46.6883 28.3517 46.9999 27.5955 46.9999 26.7048V20.2955C46.9997 19.4051 46.6888 18.6485 46.0654 18.0257Z" fill="#1F7ADC"/>
</svg>
