<svg width="47" height="47" viewBox="0 0 47 47" fill="none" xmlns="http://www.w3.org/2000/svg">
<path d="M40.2437 14.2836L43.3648 11.1625L35.8375 3.63516L32.7164 6.75625C31.468 6.05859 30.1828 5.54453 28.8242 5.14062V0.734375H18.1758V5.14062C16.8172 5.54453 15.532 6.05859 14.2836 6.75625L11.1625 3.63516L3.63516 11.1625L6.75625 14.2836C6.05859 15.532 5.54453 16.8172 5.14062 18.1758H0.734375V28.8242H5.14062C5.54453 30.1828 6.05859 31.468 6.75625 32.7164L3.63516 35.8375L11.1625 43.3648L14.2836 40.2437C15.532 40.9414 16.8172 41.4555 18.1758 41.8594V46.2656H28.8242V41.8594C30.1828 41.4555 31.468 40.9414 32.7164 40.2437L35.8375 43.3648L43.3648 35.8375L40.2437 32.7164C40.9414 31.468 41.4555 30.1828 41.8594 28.8242H46.2656V18.1758H41.8594C41.4555 16.8172 40.9047 15.532 40.2437 14.2836ZM44.7969 27.3555H40.7211L40.5742 27.9062C40.1703 29.4852 39.5461 31.0273 38.7016 32.4594L38.4078 32.9367L41.3086 35.8375L35.8742 41.2719L32.9734 38.3711L32.4961 38.6648C31.0641 39.5094 29.5219 40.1336 27.943 40.5375L27.3922 40.6844V44.7969H19.6812V40.7211L19.1305 40.5742C17.5516 40.1703 16.0094 39.5461 14.5773 38.7016L14.1 38.4078L11.1992 41.3086L5.72813 35.8375L8.62891 32.9367L8.33516 32.4594C7.49063 31.0273 6.86641 29.4852 6.4625 27.9062L6.31563 27.3555H2.20312V19.6445H6.27891L6.42578 19.0938C6.82969 17.5148 7.45391 15.9727 8.29844 14.5406L8.59219 14.0633L5.69141 11.1625L11.1258 5.72813L14.0266 8.62891L14.5039 8.33516C15.9359 7.49063 17.4781 6.86641 19.057 6.4625L19.6078 6.31563V2.20312H27.3188V6.27891L27.8695 6.42578C29.4484 6.82969 30.9906 7.45391 32.4227 8.29844L32.9 8.59219L35.8008 5.69141L41.2352 11.1258L38.3344 14.0266L38.6281 14.5039C39.4727 15.9359 40.0969 17.4781 40.5008 19.057L40.6477 19.6078H44.7969V27.3555Z" fill="#1F7ADC"/>
<path d="M23.5 11.75C17.0375 11.75 11.75 17.0375 11.75 23.5C11.75 29.9625 17.0375 35.25 23.5 35.25C29.9625 35.25 35.25 29.9625 35.25 23.5C35.25 17.0375 29.9625 11.75 23.5 11.75ZM23.5 33.7812C17.8453 33.7812 13.2188 29.1547 13.2188 23.5C13.2188 17.8453 17.8453 13.2188 23.5 13.2188C29.1547 13.2188 33.7812 17.8453 33.7812 23.5C33.7812 29.1547 29.1547 33.7812 23.5 33.7812Z" fill="#1F7ADC"/>
<path d="M23.4633 22.582C22.8391 22.2883 22.325 22.0312 22.325 21.2601C22.325 20.6359 22.8758 20.0851 23.5 20.0851C23.8672 20.0851 24.3078 20.2687 24.5281 20.7094L25.8867 20.0484C25.593 19.3508 24.932 18.8734 24.2344 18.6898V18.0656H22.7656V18.6898C21.6273 19.0203 20.8195 20.0117 20.8195 21.3336C20.8195 22.9125 21.8477 23.5 23.2063 24.0875C23.9039 24.3812 24.7117 24.7484 24.7117 25.7031C24.7117 26.364 24.1242 26.9883 23.4633 26.9883C22.8023 26.9883 22.3984 26.6578 22.1414 26.1805C21.7008 26.3273 21.2602 26.4742 20.8563 26.5844C21.0766 27.4289 21.8109 28.1633 22.8023 28.3836V29.118H24.2711V28.3836C25.3727 28.0531 26.2172 26.9883 26.2172 25.7398C26.1805 24.0508 25.3727 23.4265 23.4633 22.582Z" fill="#1F7ADC"/>
</svg>
