<svg width="129" height="129" viewBox="0 0 129 129" fill="none" xmlns="http://www.w3.org/2000/svg">
<g clip-path="url(#clip0_25_133)">
<path d="M113.85 48.3143L91.1721 61.715C91.1721 61.715 85.742 60.3521 81.6748 53.5591C77.6076 46.7661 78.9704 41.336 78.9704 41.336L101.701 27.7265C92.0962 22.6517 78.9353 22.9006 69.5296 28.5322C55.4211 36.9795 61.829 53.9063 58.1713 56.0963C38.1576 68.6117 18.7221 77.054 18.1472 77.5757C12.138 81.1737 9.98965 88.8487 13.4311 94.5966C16.8726 100.345 24.6525 102.075 30.6617 98.4773C31.4455 98.008 49.0579 84.4459 68.653 72.7135C72.3108 70.5235 83.4216 84.6345 98.0002 76.0831C107.197 70.3992 113.788 59.177 113.85 48.3143ZM24.3479 92.6744C21.424 91.9406 19.7032 89.0666 20.4371 86.1427C21.2234 83.01 24.0974 81.2892 27.0213 82.0231C29.9452 82.7569 31.6659 85.6309 30.932 88.5548C30.1982 91.4787 27.2718 93.4083 24.3479 92.6744Z" fill="#292938"/>
</g>
<defs>
<clipPath id="clip0_25_133">
<rect width="105.72" height="105.72" fill="white" transform="translate(25.7361) rotate(14.0894)"/>
</clipPath>
</defs>
</svg>
